<svg xmlns="http://www.w3.org/2000/svg" viewBox="0 0 80.95 69.66"><g id="Layer_2" data-name="Layer 2"><g id="Layer_1-2" data-name="Layer 1"><rect x="0.5" y="0.5" width="79.95" height="68.66" rx="10.09" fill="#0b0a0f" stroke="#000" stroke-miterlimit="10"/><rect x="19.26" y="20.07" width="41.78" height="29.55" rx="3.78" fill="none" stroke="#fff" stroke-miterlimit="10"/><line x1="19.07" y1="25.82" x2="60.78" y2="25.82" fill="none" stroke="#fff" stroke-miterlimit="10"/><line x1="27.53" y1="23.58" x2="27.53" y2="16.9" fill="none" stroke="#fff" stroke-miterlimit="10"/><line x1="40.15" y1="23.58" x2="40.15" y2="16.9" fill="none" stroke="#fff" stroke-miterlimit="10"/><line x1="52.76" y1="23.58" x2="52.76" y2="16.9" fill="none" stroke="#fff" stroke-miterlimit="10"/><rect x="22.82" y="30.01" width="5.04" height="5.04" rx="1.23" fill="none" stroke="#fff" stroke-miterlimit="10"/><rect x="32.48" y="30.01" width="5.04" height="5.04" rx="1.23" fill="none" stroke="#fff" stroke-miterlimit="10"/><rect x="42.14" y="30.01" width="5.04" height="5.04" rx="1.23" fill="none" stroke="#fff" stroke-miterlimit="10"/><rect x="51.79" y="30.01" width="5.04" height="5.04" rx="1.23" fill="none" stroke="#fff" stroke-miterlimit="10"/><rect x="22.82" y="39.24" width="5.04" height="5.04" rx="1.23" fill="none" stroke="#fff" stroke-miterlimit="10"/><rect x="32.48" y="39.24" width="5.04" height="5.04" rx="1.23" fill="none" stroke="#fff" stroke-miterlimit="10"/><rect x="42.14" y="39.24" width="5.04" height="5.04" rx="1.23" fill="none" stroke="#fff" stroke-miterlimit="10"/><rect x="51.79" y="39.24" width="5.04" height="5.04" rx="1.23" fill="none" stroke="#fff" stroke-miterlimit="10"/></g></g></svg>