<svg xmlns="http://www.w3.org/2000/svg" viewBox="0 0 298.91 69.48"><g id="Layer_2" data-name="Layer 2"><g id="Layer_1-2" data-name="Layer 1"><rect x="0.5" y="0.5" width="297.91" height="68.48" rx="8.82" fill="#fff" stroke="#000" stroke-miterlimit="10"/><text transform="translate(65.4 26.2)" font-size="12" font-family="IBMPlexMono-Regular, IBM Plex Mono">8/10/2023</text><rect x="57.61" y="10.52" width="84.35" height="23.38" rx="11.69" fill="none" stroke="#000" stroke-miterlimit="10"/><path d="M14.65,17.68a1.43,1.43,0,0,0,.5,1,2.14,2.14,0,0,0,1.27.32,2.31,2.31,0,0,0,.69-.09,1.37,1.37,0,0,0,.45-.24.88.88,0,0,0,.24-.36,1.49,1.49,0,0,0,.07-.43,1.27,1.27,0,0,0-.05-.34.92.92,0,0,0-.18-.3,1.16,1.16,0,0,0-.35-.25,2.35,2.35,0,0,0-.56-.16l-.91-.17a6.66,6.66,0,0,1-1-.25,2.12,2.12,0,0,1-.71-.4,1.54,1.54,0,0,1-.43-.6,2.38,2.38,0,0,1-.14-.86,1.92,1.92,0,0,1,.2-.89,1.85,1.85,0,0,1,.57-.64,2.65,2.65,0,0,1,.85-.38,4.58,4.58,0,0,1,1.08-.12,3.75,3.75,0,0,1,1.24.17,2.4,2.4,0,0,1,.81.44,2.08,2.08,0,0,1,.47.64,3.23,3.23,0,0,1,.22.75l-1.14.18a1.63,1.63,0,0,0-.49-.89,1.63,1.63,0,0,0-1.09-.29,2.92,2.92,0,0,0-.72.07,1.31,1.31,0,0,0-.46.21.9.9,0,0,0-.25.31.94.94,0,0,0-.07.37.91.91,0,0,0,.25.7,2,2,0,0,0,.9.36l1,.19a3.33,3.33,0,0,1,1.66.71,1.93,1.93,0,0,1,.53,1.46,2.05,2.05,0,0,1-.17.83,1.82,1.82,0,0,1-.5.67,2.54,2.54,0,0,1-.85.45,3.75,3.75,0,0,1-1.17.17,3.5,3.5,0,0,1-2.15-.58,2.26,2.26,0,0,1-.86-1.78Z"/><path d="M19.8,15.56v-.9h.82v-1.4h1.14v1.4h1.29v.9H21.76v2.72a.86.86,0,0,0,.16.58.63.63,0,0,0,.49.18l.32,0L23,19l.17.85a3.49,3.49,0,0,1-1,.16A1.43,1.43,0,0,1,21,19.51a2.14,2.14,0,0,1-.34-1.33V15.56Z"/><path d="M27.09,19.18a2.69,2.69,0,0,1-.71.58,2.13,2.13,0,0,1-1,.23,2.17,2.17,0,0,1-.69-.1,1.64,1.64,0,0,1-.56-.28,1.41,1.41,0,0,1-.37-.49,1.63,1.63,0,0,1-.13-.69,1.5,1.5,0,0,1,.24-.88,1.65,1.65,0,0,1,.62-.52,3,3,0,0,1,.87-.27,7.79,7.79,0,0,1,1-.09l.77,0v-.22a1,1,0,0,0-.29-.82,1.16,1.16,0,0,0-.74-.22,1.38,1.38,0,0,0-.79.18.82.82,0,0,0-.33.52l-1-.11a1.55,1.55,0,0,1,.69-1.11,3.39,3.39,0,0,1,2.53-.19,1.5,1.5,0,0,1,1,1.1,3.25,3.25,0,0,1,.1.85v3.25H27.09Zm-.75-1.75a4.08,4.08,0,0,0-.83.11,1.36,1.36,0,0,0-.48.2.62.62,0,0,0-.23.29,1.36,1.36,0,0,0-.05.36.69.69,0,0,0,.21.53,1,1,0,0,0,.64.19,1.48,1.48,0,0,0,1.11-.38,1.45,1.45,0,0,0,.36-1v-.3Z"/><path d="M30.54,14.67v.77a1.89,1.89,0,0,1,.65-.64,1.54,1.54,0,0,1,.81-.22h.28a.91.91,0,0,1,.23,0l-.13,1.05a1,1,0,0,0-.24,0h-.27a1.37,1.37,0,0,0-.56.1,1.23,1.23,0,0,0-.66.66,1.31,1.31,0,0,0-.08.43v3.05H29.43V14.67Z"/><path d="M33.07,15.56v-.9h.82v-1.4H35v1.4h1.29v.9H35v2.72a.86.86,0,0,0,.16.58.63.63,0,0,0,.49.18L36,19l.31-.07.17.85a3.49,3.49,0,0,1-1,.16,1.43,1.43,0,0,1-1.21-.45,2.14,2.14,0,0,1-.34-1.33V15.56Z"/><path d="M38.38,12.72v1.13H37.2V12.72Zm0,1.94v5.2H37.22v-5.2Z"/><path d="M40.78,14.66v.76a2.13,2.13,0,0,1,.78-.7,2,2,0,0,1,.93-.22q1.74,0,1.74,1.92v3.44H43.09V16.6a1.36,1.36,0,0,0-.23-.89.86.86,0,0,0-.68-.25,1.42,1.42,0,0,0-.55.1,1.21,1.21,0,0,0-.43.29,1.46,1.46,0,0,0-.29.41,1.21,1.21,0,0,0-.1.5v3.1H39.67v-5.2Z"/><path d="M46.64,20.26c.08.5.43.75,1.06.75H48a1.22,1.22,0,0,0,.61-.16.94.94,0,0,0,.35-.39,1.54,1.54,0,0,0,.17-.55c0-.2,0-.43,0-.66V18.9a1.91,1.91,0,0,1-1.65.83,2.28,2.28,0,0,1-1-.2,1.9,1.9,0,0,1-.68-.54,2.17,2.17,0,0,1-.4-.82,3.85,3.85,0,0,1-.13-1,3.75,3.75,0,0,1,.14-1,2.62,2.62,0,0,1,.43-.83,2.07,2.07,0,0,1,.68-.56,2.2,2.2,0,0,1,.94-.21,1.5,1.5,0,0,1,.36,0,2.12,2.12,0,0,1,.69.21,1.84,1.84,0,0,1,.62.55v-.63h1.12v4.48a5.19,5.19,0,0,1-.13,1.18,2.21,2.21,0,0,1-.42.87,1.73,1.73,0,0,1-.75.54,3.09,3.09,0,0,1-1.12.18,2.9,2.9,0,0,1-1.72-.41,1.7,1.7,0,0,1-.64-1.24Zm2.5-3.2a2.32,2.32,0,0,0-.12-.8,1.17,1.17,0,0,0-.3-.5,1,1,0,0,0-.42-.26,1.73,1.73,0,0,0-.5-.07,1.16,1.16,0,0,0-1,.43,1.94,1.94,0,0,0-.34,1.25,2.69,2.69,0,0,0,.1.8,1.43,1.43,0,0,0,.28.52,1,1,0,0,0,.39.29,1.37,1.37,0,0,0,.49.09,1.24,1.24,0,0,0,1.06-.44,2,2,0,0,0,.33-1.25Z"/><path d="M32.41,23.72a4.51,4.51,0,0,1,1.42.21,2.8,2.8,0,0,1,1.07.66,2.83,2.83,0,0,1,.67,1.1,5.09,5.09,0,0,1,0,3.12,3,3,0,0,1-.72,1.13,3.1,3.1,0,0,1-1.15.69,4.8,4.8,0,0,1-1.52.23H29.83V23.72Zm-.2,6.1a2.82,2.82,0,0,0,1.07-.18,1.77,1.77,0,0,0,.73-.52,2.15,2.15,0,0,0,.42-.81,4.19,4.19,0,0,0,.13-1,3,3,0,0,0-.5-1.84,1.93,1.93,0,0,0-1.64-.66H31v5.06Z"/><path d="M39.91,30.18a2.69,2.69,0,0,1-.71.58,2.13,2.13,0,0,1-1,.23,2.17,2.17,0,0,1-.69-.1,1.64,1.64,0,0,1-.56-.28,1.41,1.41,0,0,1-.37-.49,1.63,1.63,0,0,1-.13-.69,1.5,1.5,0,0,1,.24-.88,1.65,1.65,0,0,1,.62-.52,3,3,0,0,1,.87-.27,7.79,7.79,0,0,1,1-.09l.77,0v-.22a1,1,0,0,0-.29-.82,1.16,1.16,0,0,0-.74-.22,1.38,1.38,0,0,0-.79.18.82.82,0,0,0-.33.52l-1-.11a1.55,1.55,0,0,1,.69-1.11,3.39,3.39,0,0,1,2.53-.19,1.5,1.5,0,0,1,1,1.1,3.25,3.25,0,0,1,.1.85v3.25H39.91Zm-.75-1.75a4.08,4.08,0,0,0-.83.11,1.36,1.36,0,0,0-.48.2.62.62,0,0,0-.23.29,1.36,1.36,0,0,0,0,.36.69.69,0,0,0,.21.53,1,1,0,0,0,.64.19,1.48,1.48,0,0,0,1.11-.38,1.45,1.45,0,0,0,.36-1v-.3Z"/><path d="M41.74,26.56v-.9h.82v-1.4H43.7v1.4H45v.9H43.7v2.72a.86.86,0,0,0,.16.58.63.63,0,0,0,.49.18l.32,0L45,30l.17.85a3.49,3.49,0,0,1-1,.16,1.43,1.43,0,0,1-1.21-.45,2.14,2.14,0,0,1-.34-1.33V26.56Z"/><path d="M50.39,29.32a2,2,0,0,1-.69,1.25,2.46,2.46,0,0,1-1.58.45,2.41,2.41,0,0,1-1.89-.72,2.89,2.89,0,0,1-.64-2,3.59,3.59,0,0,1,.18-1.19,2.63,2.63,0,0,1,.52-.88,2.46,2.46,0,0,1,.8-.54,2.82,2.82,0,0,1,1-.18,2.76,2.76,0,0,1,1,.18,2.16,2.16,0,0,1,.73.52,2.37,2.37,0,0,1,.43.8,3.74,3.74,0,0,1,.14,1v.5H46.73a1.9,1.9,0,0,0,.36,1.15,1.22,1.22,0,0,0,1,.44,1.31,1.31,0,0,0,.81-.21,1,1,0,0,0,.36-.6Zm-1-1.57a1.54,1.54,0,0,0-.3-1,1.15,1.15,0,0,0-1-.37,1.21,1.21,0,0,0-1,.37,1.67,1.67,0,0,0-.38,1Z"/><path d="M167.35,12.72h4.75v1h-3.54v1.91h3.34v1h-3.34v2.11h3.73l-.14,1h-4.8Z"/><path d="M174.34,14.66v.76a2.24,2.24,0,0,1,.79-.7,2,2,0,0,1,.93-.22c1.16,0,1.73.64,1.73,1.92v3.44h-1.14V16.6a1.3,1.3,0,0,0-.23-.89.84.84,0,0,0-.67-.25,1.38,1.38,0,0,0-.55.1,1.35,1.35,0,0,0-.44.29,1.42,1.42,0,0,0-.28.41,1.22,1.22,0,0,0-.11.5v3.1h-1.14v-5.2Z"/><path d="M182.72,19.15a2.2,2.2,0,0,1-.72.65,2,2,0,0,1-.95.22,2.27,2.27,0,0,1-1-.2,1.87,1.87,0,0,1-.68-.57,2.49,2.49,0,0,1-.4-.87,4.27,4.27,0,0,1-.14-1.11A4.07,4.07,0,0,1,179,16.2a2.85,2.85,0,0,1,.41-.86,2.07,2.07,0,0,1,.67-.58,1.92,1.92,0,0,1,.91-.24h.2l.21,0a2,2,0,0,1,.68.19,2,2,0,0,1,.62.52V12.72h1.13v7.14h-1.11Zm0-2a2.74,2.74,0,0,0-.1-.82,1.38,1.38,0,0,0-.29-.54,1.11,1.11,0,0,0-.43-.28,1.77,1.77,0,0,0-.52-.08,1.15,1.15,0,0,0-1,.45,2.25,2.25,0,0,0-.35,1.37,3.36,3.36,0,0,0,.1.85,1.49,1.49,0,0,0,.27.58,1.2,1.2,0,0,0,.4.32,1.39,1.39,0,0,0,.5.1,1.33,1.33,0,0,0,1-.41,1.77,1.77,0,0,0,.38-1.27Z"/><path d="M186.3,12.72v1.13h-1.18V12.72Zm0,1.94v5.2h-1.14v-5.2Z"/><path d="M188.7,14.66v.76a2.24,2.24,0,0,1,.79-.7,2,2,0,0,1,.93-.22c1.16,0,1.73.64,1.73,1.92v3.44H191V16.6a1.3,1.3,0,0,0-.23-.89.84.84,0,0,0-.67-.25,1.47,1.47,0,0,0-.56.1,1.35,1.35,0,0,0-.71.7,1.22,1.22,0,0,0-.11.5v3.1h-1.14v-5.2Z"/><path d="M194.56,20.26c.08.5.44.75,1.06.75h.26a1.16,1.16,0,0,0,.61-.16.9.9,0,0,0,.36-.39,1.54,1.54,0,0,0,.16-.55,4.59,4.59,0,0,0,0-.66V18.9a1.89,1.89,0,0,1-1.65.83,2.27,2.27,0,0,1-1-.2,1.85,1.85,0,0,1-.69-.54,2.33,2.33,0,0,1-.4-.82,4.29,4.29,0,0,1-.13-1,3.4,3.4,0,0,1,.15-1,2.6,2.6,0,0,1,.42-.83,2.21,2.21,0,0,1,.69-.56,2.17,2.17,0,0,1,.94-.21,1.56,1.56,0,0,1,.36,0,2.12,2.12,0,0,1,.69.21,1.81,1.81,0,0,1,.61.55v-.63h1.12v4.48a4.68,4.68,0,0,1-.13,1.18,2,2,0,0,1-.42.87,1.76,1.76,0,0,1-.74.54,3.15,3.15,0,0,1-1.13.18,2.92,2.92,0,0,1-1.72-.41,1.73,1.73,0,0,1-.64-1.24Zm2.5-3.2a2.34,2.34,0,0,0-.11-.8,1.41,1.41,0,0,0-.3-.5,1.06,1.06,0,0,0-.43-.26,1.66,1.66,0,0,0-.49-.07,1.16,1.16,0,0,0-1,.43,1.94,1.94,0,0,0-.35,1.25,2.66,2.66,0,0,0,.11.8,1.59,1.59,0,0,0,.27.52,1.11,1.11,0,0,0,.4.29,1.33,1.33,0,0,0,.49.09,1.26,1.26,0,0,0,1.06-.44,2.12,2.12,0,0,0,.32-1.25Z"/><path d="M180.33,23.72a4.46,4.46,0,0,1,1.42.21,2.72,2.72,0,0,1,1.07.66,2.85,2.85,0,0,1,.68,1.1,4.62,4.62,0,0,1,.23,1.56,4.4,4.4,0,0,1-.25,1.56,2.82,2.82,0,0,1-.72,1.13,3,3,0,0,1-1.14.69,4.82,4.82,0,0,1-1.53.23h-2.34V23.72Zm-.2,6.1a2.91,2.91,0,0,0,1.08-.18,1.77,1.77,0,0,0,.73-.52,2,2,0,0,0,.41-.81,3.77,3.77,0,0,0,.13-1,2.94,2.94,0,0,0-.5-1.84,1.92,1.92,0,0,0-1.64-.66H179v5.06Z"/><path d="M187.83,30.18a2.54,2.54,0,0,1-.71.58,2.13,2.13,0,0,1-1,.23,2.26,2.26,0,0,1-.69-.1,1.68,1.68,0,0,1-.55-.28,1.3,1.3,0,0,1-.37-.49,1.63,1.63,0,0,1-.14-.69,1.5,1.5,0,0,1,.24-.88,1.61,1.61,0,0,1,.63-.52,2.89,2.89,0,0,1,.86-.27,7.79,7.79,0,0,1,1-.09l.77,0v-.22a1,1,0,0,0-.28-.82,1.17,1.17,0,0,0-.75-.22,1.36,1.36,0,0,0-.78.18.87.87,0,0,0-.34.52l-1-.11a1.61,1.61,0,0,1,.69-1.11,3.42,3.42,0,0,1,2.54-.19,1.5,1.5,0,0,1,.64.44,1.54,1.54,0,0,1,.34.66,3.76,3.76,0,0,1,.09.85v3.25h-1.09Zm-.75-1.75a4,4,0,0,0-.82.11,1.51,1.51,0,0,0-.49.2.66.66,0,0,0-.22.29,1,1,0,0,0-.06.36.7.7,0,0,0,.22.53,1,1,0,0,0,.63.19,1.48,1.48,0,0,0,1.11-.38,1.45,1.45,0,0,0,.36-1v-.3Z"/><path d="M189.66,26.56v-.9h.82v-1.4h1.14v1.4h1.29v.9h-1.29v2.72a.85.85,0,0,0,.17.58.62.62,0,0,0,.48.18l.33,0,.3-.07.17.85a3.39,3.39,0,0,1-1,.16,1.42,1.42,0,0,1-1.2-.45,2.13,2.13,0,0,1-.35-1.33V26.56Z"/><path d="M198.31,29.32a1.92,1.92,0,0,1-.69,1.25,2.89,2.89,0,0,1-3.46-.27,2.89,2.89,0,0,1-.65-2,3.58,3.58,0,0,1,.19-1.19,2.48,2.48,0,0,1,.52-.88,2.36,2.36,0,0,1,.8-.54,2.8,2.8,0,0,1,1-.18,2.73,2.73,0,0,1,1,.18,2,2,0,0,1,.73.52,2.07,2.07,0,0,1,.43.8,3.4,3.4,0,0,1,.14,1v.5h-3.73a2,2,0,0,0,.36,1.15,1.23,1.23,0,0,0,1,.44,1.31,1.31,0,0,0,.81-.21,1,1,0,0,0,.36-.6Zm-1-1.57a1.54,1.54,0,0,0-.3-1,1.15,1.15,0,0,0-1-.37,1.21,1.21,0,0,0-1,.37,1.74,1.74,0,0,0-.38,1Z"/><text transform="translate(212.04 26.2)" font-size="12" font-family="IBMPlexMono-Regular, IBM Plex Mono">2/25/2025</text><rect x="204.25" y="10.52" width="84.35" height="23.38" rx="11.69" fill="none" stroke="#000" stroke-miterlimit="10"/><line x1="83.24" y1="51.1" x2="282.92" y2="51.1" fill="none" stroke="#000" stroke-miterlimit="10"/><line x1="13.35" y1="51.1" x2="80.95" y2="51.1" fill="none" stroke="#000" stroke-miterlimit="10" opacity="0.3"/><ellipse cx="281.25" cy="50.97" rx="4.43" ry="4.39" stroke="#000" stroke-miterlimit="10"/><ellipse cx="81.24" cy="50.97" rx="4.43" ry="4.39" stroke="#000" stroke-miterlimit="10"/></g></g></svg>